<svg xmlns="http://www.w3.org/2000/svg" width="900" height="500" viewBox="0 0 900 500">
  <metadata><?xpacket begin="﻿" id="W5M0MpCehiHzreSzNTczkc9d"?>
<x:xmpmeta xmlns:x="adobe:ns:meta/" x:xmptk="Adobe XMP Core 5.6-c140 79.160451, 2017/05/06-01:08:21        ">
   <rdf:RDF xmlns:rdf="http://www.w3.org/1999/02/22-rdf-syntax-ns#">
      <rdf:Description rdf:about=""/>
   </rdf:RDF>
</x:xmpmeta>
<?xpacket end="w"?></metadata>
<defs>
    <style>
      .cls-1 {
        fill: #fff;
        fill-rule: evenodd;
      }
    </style>
  </defs>
  <path id="_.org" data-name=".org" class="cls-1" d="M189.728,35.887h20.514v49.02h20.114V35.887h20.513V19.813H189.728V35.887Zm65.315,49.02H273.2V69.1q0-11.323,2.8-15.452a6.243,6.243,0,0,1,5.506-2.931,14.212,14.212,0,0,1,5.062,1.332l5.594-12.877a19.085,19.085,0,0,0-8.747-2.486A10.626,10.626,0,0,0,277,38.573q-2.6,1.888-5.04,6.9V37.752H255.043V84.907Zm92.889-47.155H329.861V60.441q0,6.439-2.065,8.925a6.583,6.583,0,0,1-5.306,2.487,5.83,5.83,0,0,1-4.618-1.865q-1.643-1.865-1.643-6.305V37.752h-18.16V67.767q0,9.281,4.24,13.743t11.7,4.462a20.267,20.267,0,0,0,9.436-2,24.877,24.877,0,0,0,7.615-6.7v7.637h16.872V37.752Zm14.809,44.535q5.483,3.686,18.4,3.685,9.147,0,14.453-2.284a16.674,16.674,0,0,0,7.77-6.143,14.573,14.573,0,0,0,2.465-7.94A12.748,12.748,0,0,0,403.5,62.2a14.788,14.788,0,0,0-6.727-5.19q-4.4-1.819-13.41-2.839-5.95-.71-7.726-1.6a2.81,2.81,0,0,1-1.776-2.616,3.245,3.245,0,0,1,1.4-2.638,7.3,7.3,0,0,1,4.462-1.087,9.076,9.076,0,0,1,5.151,1.421,5.859,5.859,0,0,1,2.22,3.33L404.234,49.3a20.91,20.91,0,0,0-4.462-7.326,16.249,16.249,0,0,0-6.7-4q-4.019-1.287-12.455-1.288a39.639,39.639,0,0,0-12.743,1.664,16.123,16.123,0,0,0-7.46,5.034,12.428,12.428,0,0,0-2.708,8.029A12.263,12.263,0,0,0,360.21,59a13.786,13.786,0,0,0,6.172,4.724,80.976,80.976,0,0,0,13.076,3.038q6.3,1.109,7.77,1.862a3.3,3.3,0,0,1,2.043,3.015,3.465,3.465,0,0,1-1.554,2.881,9.007,9.007,0,0,1-5.639,1.552,9.235,9.235,0,0,1-5.329-1.376,8.847,8.847,0,0,1-3.108-4.573L355.7,71.808A16.565,16.565,0,0,0,362.741,82.287Zm55.391-53.194v8.658h-6.66V50.983h6.66V67.569q0,7.893,1.532,11.419a10.547,10.547,0,0,0,4.729,5.255q3.2,1.73,9.946,1.73a58.839,58.839,0,0,0,12.521-1.465l-1.332-12.475a19.817,19.817,0,0,1-5.594,1.152,3.306,3.306,0,0,1-3.109-1.507,8.979,8.979,0,0,1-.577-3.988V50.983h9.946V37.752h-9.946V19.813Zm37.342,3.019h18.072v-12.3H455.474v12.3Zm0,52.794h18.072V37.752H455.474V84.907Zm29.617,0h18.071V62.262q0-6.438,2.043-8.925a6.566,6.566,0,0,1,5.328-2.486,5.868,5.868,0,0,1,4.618,1.843q1.643,1.843,1.643,6.283V84.907h18.16V54.935q0-9.324-4.24-13.787t-11.745-4.462a20.109,20.109,0,0,0-9.413,2.02,25.065,25.065,0,0,0-7.637,6.727V37.752H485.091V84.907Zm93.466-40.184a19.774,19.774,0,0,0-6.683-6.172,19.545,19.545,0,0,0-9.08-1.865q-8.614,0-13.942,5.772t-5.328,16.784q0,9.636,4.129,15.5Q553.47,83,562.927,83A17.6,17.6,0,0,0,577.269,76.2v7.149q0,5.195-1.931,7.282T569.5,92.721a8.65,8.65,0,0,1-5.018-1.377,5.7,5.7,0,0,1-2.042-3.374l-17.539-2q-0.09,1.509-.089,2.4a13.888,13.888,0,0,0,5.306,11.411q5.306,4.263,19.515,4.263a49.467,49.467,0,0,0,11.034-1.11,19.7,19.7,0,0,0,7.948-3.6,17.8,17.8,0,0,0,5.017-6.5,19.668,19.668,0,0,0,1.888-8.459l-0.045-2.087V37.752H578.557v6.971Zm-14.941,7.571a6.793,6.793,0,0,1,5.528-2.509,7.511,7.511,0,0,1,5.861,2.731q2.4,2.731,2.4,7.881t-2.286,7.7a7.717,7.717,0,0,1-11.389.089q-2.177-2.464-2.176-7.571Q561.551,54.8,563.616,52.293ZM64.393,73.81q13.716,0,18.04,5.007t4.321,17.765V242.546q0,32.512-4.733,42.8T65.628,295.636q-10.427,0-10.426-6.31a12.3,12.3,0,0,1,.686-3.293,22.333,22.333,0,0,0,1.1-6.036,14.993,14.993,0,0,0-5.624-12.346q-5.624-4.527-15.09-4.527A26.868,26.868,0,0,0,19.4,268.611a17.446,17.446,0,0,0-7.133,14.542q0,12.757,13.581,20.234t35.531,7.477q26.886,0,44.585-10.221t23.527-26.133q5.829-15.915,5.83-44.585V96.583q0-13.716,4.938-18.245t19.892-4.527V58.583H59.592V73.81h4.8ZM288.139,187.124q0-29.905-16.942-44.653t-43.418-14.747q-26.34,0-45.065,16.05t-18.726,44.173q0,28.123,19.343,44.653t46.505,16.531a70.967,70.967,0,0,0,32.307-7.339q14.61-7.338,22.43-18.589l-12.758-7.682q-13.583,16.463-29.769,16.462-15.228,0-22.841-11.249t-7.614-33.61h76.548ZM215.706,150.5a13.768,13.768,0,0,1,12.758-7.545q16.875,0,17.7,30.317H211.454Q211.454,158.041,215.706,150.5Zm108.513,98.635a16.029,16.029,0,0,1,5.487-7.682q19.615,7.68,37.588,7.682,23.459,0,39.372-11.386t15.913-29.358a32.485,32.485,0,0,0-6.1-19.548,38.005,38.005,0,0,0-16.737-12.827q-10.632-4.389-31.758-8.642-20.3-3.978-25.516-6.585-5.351-2.6-5.35-8.094,0-5.213,6.585-8.574t16.873-3.361q31.551,0,42.116,20.989h10.974l-1.234-34.021H401.041a24.686,24.686,0,0,1-5.213,7.133,103.582,103.582,0,0,0-36.9-7.133q-23.459,0-37.451,10.631t-13.993,27.78a32.892,32.892,0,0,0,6.859,20.509,40.486,40.486,0,0,0,18.109,13.307q11.247,4.321,34.844,9.122,15.228,3.157,19.618,5.488a7.713,7.713,0,0,1,4.252,7q0,5.215-7.819,9.329T363.59,235q-28.534,0-39.234-23.184H310.912l0.96,37.314h12.347Zm211.811,0a383.778,383.778,0,0,1,56.383-4.664q3.015,0,6.722.137V230.062q-12.211,0-15.434-3.909t-3.223-14.336V132.251H517.647v14.541q11.935,0,15.159,3.978t3.224,14.267v43.076q-6.45,8.781-12.346,13.17t-11.249,4.39q-7.135,0-10.426-4.665t-3.293-15.364V132.251H437.4v14.541q10.289,0,13.65,3.841t3.361,14.4v43.076q0,24.009,12.415,32.513a47.822,47.822,0,0,0,27.642,8.5,50.568,50.568,0,0,0,22.293-5.007,63.153,63.153,0,0,0,19.274-14.885v19.892Zm92.462,0a16.029,16.029,0,0,1,5.487-7.682q19.617,7.68,37.588,7.682,23.458,0,39.372-11.386t15.913-29.358a32.485,32.485,0,0,0-6.1-19.548,38.005,38.005,0,0,0-16.737-12.827q-10.632-4.389-31.758-8.642-20.3-3.978-25.516-6.585-5.351-2.6-5.35-8.094,0-5.213,6.585-8.574t16.873-3.361q31.553,0,42.116,20.989h10.975L716.7,127.724H705.315a24.7,24.7,0,0,1-5.213,7.133,103.591,103.591,0,0,0-36.9-7.133q-23.459,0-37.451,10.631t-13.993,27.78a32.886,32.886,0,0,0,6.86,20.509,40.483,40.483,0,0,0,18.108,13.307q11.247,4.321,34.844,9.122,15.228,3.157,19.618,5.488a7.713,7.713,0,0,1,4.252,7q0,5.215-7.819,9.329T667.864,235q-28.536,0-39.235-23.184H615.185l0.96,37.314h12.347Zm3.476,91.575c4.037,0,6.547-2.946,6.547-6.874,0-4.037-2.619-6.874-6.438-6.874s-6.546,2.837-6.546,6.874C625.531,337.76,628.149,340.706,631.968,340.706ZM672.776,285.5c-14.62,0-26.186,10.365-26.186,28.041,0,16.694,11.02,27.168,25.313,27.168,12.766,0,26.3-8.511,26.3-28.041C698.2,296.517,687.942,285.5,672.776,285.5Zm-0.218,7.2c11.347,0,15.821,11.347,15.821,20.294,0,11.893-6.874,20.513-16.039,20.513-9.384,0-16.039-8.729-16.039-20.294C656.3,303.173,661.211,292.7,672.558,292.7Zm37.759,46.808h9.492v-28.15a26.948,26.948,0,0,1,.437-4.474c1.309-7.2,6.11-12.329,12.874-12.329a14.44,14.44,0,0,1,3.274.327v-9.056a10.4,10.4,0,0,0-2.728-.327c-6.437,0-12.22,4.473-14.621,11.565h-0.436L718.282,286.7h-8.4c0.328,4.91.437,10.256,0.437,16.476v36.333ZM782.224,286.7l-0.437,7.965h-0.218c-2.291-4.364-7.31-9.165-16.475-9.165-12.111,0-23.786,10.147-23.786,28.041,0,14.62,9.383,25.75,22.476,25.75,8.184,0,13.857-3.928,16.8-8.838h0.218v5.892c0,13.311-7.2,18.439-17.021,18.439a29.779,29.779,0,0,1-15.493-4.146l-2.4,7.31c4.255,2.837,11.238,4.365,17.566,4.365,6.656,0,14.075-1.528,19.2-6.329,5.128-4.582,7.529-12,7.529-24.113V301.209c0-6.438.218-10.693,0.436-14.512h-8.4ZM780.7,317.029a16.715,16.715,0,0,1-.763,5.128,14.036,14.036,0,0,1-13.312,9.82c-10.365,0-15.6-8.619-15.6-18.985,0-12.22,6.546-19.967,15.711-19.967,6.983,0,11.675,4.583,13.421,10.148a13.682,13.682,0,0,1,.545,4.364v9.492Z"/>
</svg>
